<svg width="69" height="69" viewBox="0 0 69 69" fill="none" xmlns="http://www.w3.org/2000/svg">
<circle cx="34.2935" cy="34.3259" r="34" fill="#1218C0"/>
<circle cx="34.2935" cy="34.3259" r="34" fill="url(#paint0_linear_183_1001)" fill-opacity="0.8"/>
<path d="M27.3323 42.5899C26.2323 42.5899 25.235 42.3773 24.3403 41.9519C23.4603 41.5119 22.7563 40.8446 22.2283 39.9499C21.715 39.0553 21.4583 37.9186 21.4583 36.5399V26.9259H23.7903V36.5619C23.7903 37.9113 24.113 38.9013 24.7583 39.5319C25.4037 40.1626 26.2763 40.4779 27.3763 40.4779C28.4617 40.4779 29.327 40.1626 29.9723 39.5319C30.6177 38.9013 30.9403 37.9113 30.9403 36.5619V26.9259H33.2723V36.5399C33.2723 37.9186 33.001 39.0553 32.4583 39.9499C31.9303 40.8446 31.2117 41.5119 30.3023 41.9519C29.4077 42.3773 28.4177 42.5899 27.3323 42.5899ZM35.4937 42.3259L40.2457 34.5379L35.4497 26.9259H38.1117L41.7417 32.6899L45.1297 26.9259H47.7477L42.9737 34.6479L47.8137 42.3259H45.1517L41.4997 36.5179L38.1117 42.3259H35.4937Z" fill="#F6F6F6"/>
<defs>
<linearGradient id="paint0_linear_183_1001" x1="38.6113" y1="0.325926" x2="-17.105" y2="49.5539" gradientUnits="userSpaceOnUse">
<stop stop-color="#1218C0"/>
<stop offset="0.600165" stop-color="#1F97F7"/>
</linearGradient>
</defs>
</svg>
