<svg width="69" height="69" viewBox="0 0 69 69" fill="none" xmlns="http://www.w3.org/2000/svg">
<circle cx="34.2935" cy="34.4419" r="34" fill="#1218C0"/>
<circle cx="34.2935" cy="34.4419" r="34" fill="url(#paint0_linear_183_1005)" fill-opacity="0.8"/>
<path d="M31.5433 42.7059C30.4433 42.7059 29.446 42.4932 28.5513 42.0679C27.6713 41.6279 26.9673 40.9606 26.4393 40.0659C25.926 39.1712 25.6693 38.0346 25.6693 36.6559V27.0419H28.0013V36.6779C28.0013 38.0272 28.324 39.0172 28.9693 39.6479C29.6146 40.2786 30.4873 40.5939 31.5873 40.5939C32.6726 40.5939 33.538 40.2786 34.1833 39.6479C34.8286 39.0172 35.1513 38.0272 35.1513 36.6779V27.0419H37.4833V36.6559C37.4833 38.0346 37.212 39.1712 36.6693 40.0659C36.1413 40.9606 35.4226 41.6279 34.5133 42.0679C33.6186 42.4932 32.6286 42.7059 31.5433 42.7059ZM40.4746 42.4419V27.0419H42.8066V42.4419H40.4746Z" fill="#F6F6F6"/>
<defs>
<linearGradient id="paint0_linear_183_1005" x1="38.6113" y1="0.441893" x2="-17.105" y2="49.6699" gradientUnits="userSpaceOnUse">
<stop stop-color="#1218C0"/>
<stop offset="0.600165" stop-color="#1F97F7"/>
</linearGradient>
</defs>
</svg>
