<svg width="69" height="69" viewBox="0 0 69 69" fill="none" xmlns="http://www.w3.org/2000/svg">
<circle cx="34.2935" cy="34.2097" r="34" fill="#1218C0"/>
<circle cx="34.2935" cy="34.2097" r="34" fill="url(#paint0_linear_183_997)" fill-opacity="0.8"/>
<path d="M12.4958 42.4737C10.9705 42.4737 9.65049 42.1437 8.53582 41.4837C7.43582 40.8091 6.58516 39.8777 5.98382 38.6897C5.38249 37.487 5.08182 36.101 5.08182 34.5317C5.08182 32.9477 5.38249 31.5617 5.98382 30.3737C6.58516 29.171 7.43582 28.2324 8.53582 27.5577C9.65049 26.883 10.9705 26.5457 12.4958 26.5457C14.2998 26.5457 15.7738 26.9857 16.9178 27.8657C18.0618 28.7457 18.7878 29.9777 19.0958 31.5617H16.4998C16.2945 30.667 15.8545 29.9557 15.1798 29.4277C14.5052 28.8997 13.6032 28.6357 12.4738 28.6357C10.9338 28.6357 9.71649 29.1637 8.82182 30.2197C7.92716 31.261 7.47982 32.6984 7.47982 34.5317C7.47982 36.3504 7.92716 37.7804 8.82182 38.8217C9.71649 39.863 10.9338 40.3837 12.4738 40.3837C13.6032 40.3837 14.5052 40.1344 15.1798 39.6357C15.8545 39.137 16.2945 38.455 16.4998 37.5897H19.0958C18.7878 39.115 18.0618 40.3104 16.9178 41.1757C15.7738 42.0411 14.2998 42.4737 12.4958 42.4737ZM28.7652 42.4737C27.2398 42.4737 25.9052 42.1364 24.7612 41.4617C23.6172 40.7871 22.7225 39.8557 22.0772 38.6677C21.4318 37.465 21.1092 36.079 21.1092 34.5097C21.1092 32.9404 21.4318 31.5617 22.0772 30.3737C22.7225 29.171 23.6172 28.2324 24.7612 27.5577C25.9052 26.883 27.2398 26.5457 28.7652 26.5457C30.2905 26.5457 31.6252 26.883 32.7692 27.5577C33.9132 28.2324 34.8005 29.171 35.4312 30.3737C36.0765 31.5617 36.3992 32.9404 36.3992 34.5097C36.3992 36.079 36.0765 37.465 35.4312 38.6677C34.8005 39.8557 33.9132 40.7871 32.7692 41.4617C31.6252 42.1364 30.2905 42.4737 28.7652 42.4737ZM28.7652 40.3837C29.8212 40.3837 30.7378 40.1491 31.5152 39.6797C32.3072 39.2104 32.9232 38.5357 33.3632 37.6557C33.8032 36.7757 34.0232 35.727 34.0232 34.5097C34.0232 33.2924 33.8032 32.2437 33.3632 31.3637C32.9232 30.4837 32.3072 29.809 31.5152 29.3397C30.7378 28.8704 29.8212 28.6357 28.7652 28.6357C27.7092 28.6357 26.7852 28.8704 25.9932 29.3397C25.2012 29.809 24.5852 30.4837 24.1452 31.3637C23.7198 32.2437 23.5072 33.2924 23.5072 34.5097C23.5072 35.727 23.7198 36.7757 24.1452 37.6557C24.5852 38.5357 25.2012 39.2104 25.9932 39.6797C26.7852 40.1491 27.7092 40.3837 28.7652 40.3837ZM38.9971 42.2097V26.8097H44.3871C45.5897 26.8097 46.5871 27.015 47.3791 27.4257C48.1711 27.8217 48.7577 28.3717 49.1391 29.0757C49.5351 29.765 49.7331 30.5497 49.7331 31.4297C49.7331 32.2657 49.5424 33.0357 49.1611 33.7397C48.7944 34.429 48.2151 34.979 47.4231 35.3897C46.6311 35.8004 45.6191 36.0057 44.3871 36.0057H41.3291V42.2097H38.9971ZM41.3291 34.0917H44.2771C45.3771 34.0917 46.1617 33.857 46.6311 33.3877C47.1151 32.9037 47.3571 32.251 47.3571 31.4297C47.3571 30.579 47.1151 29.919 46.6311 29.4497C46.1617 28.9657 45.3771 28.7237 44.2771 28.7237H41.3291V34.0917ZM55.7607 42.2097V36.5337L50.6567 26.8097H53.2967L56.9267 34.2457L60.5347 26.8097H63.1527L58.0927 36.5337V42.2097H55.7607Z" fill="#F6F6F6"/>
<defs>
<linearGradient id="paint0_linear_183_997" x1="38.6113" y1="0.209716" x2="-17.105" y2="49.4377" gradientUnits="userSpaceOnUse">
<stop stop-color="#1218C0"/>
<stop offset="0.600165" stop-color="#1F97F7"/>
</linearGradient>
</defs>
</svg>
