<svg width="69" height="69" viewBox="0 0 69 69" fill="none" xmlns="http://www.w3.org/2000/svg">
<circle cx="34.2935" cy="34.3259" r="34" fill="#1218C0"/>
<circle cx="34.2935" cy="34.3259" r="34" fill="url(#paint0_linear_183_1009)" fill-opacity="0.8"/>
<path d="M15.2624 42.5899C13.7371 42.5899 12.4171 42.2599 11.3024 41.5999C10.2024 40.9253 9.35176 39.9939 8.75043 38.8059C8.14909 37.6033 7.84843 36.2173 7.84843 34.6479C7.84843 33.0639 8.14909 31.6779 8.75043 30.4899C9.35176 29.2873 10.2024 28.3486 11.3024 27.6739C12.4171 26.9993 13.7371 26.6619 15.2624 26.6619C17.0664 26.6619 18.5404 27.1019 19.6844 27.9819C20.8284 28.8619 21.5544 30.0939 21.8624 31.6779H19.2664C19.0611 30.7833 18.6211 30.0719 17.9464 29.5439C17.2718 29.0159 16.3698 28.7519 15.2404 28.7519C13.7004 28.7519 12.4831 29.2799 11.5884 30.3359C10.6938 31.3773 10.2464 32.8146 10.2464 34.6479C10.2464 36.4666 10.6938 37.8966 11.5884 38.9379C12.4831 39.9793 13.7004 40.4999 15.2404 40.4999C16.3698 40.4999 17.2718 40.2506 17.9464 39.7519C18.6211 39.2533 19.0611 38.5713 19.2664 37.7059H21.8624C21.5544 39.2313 20.8284 40.4266 19.6844 41.2919C18.5404 42.1573 17.0664 42.5899 15.2624 42.5899ZM29.5078 42.5899C28.3784 42.5899 27.3884 42.3919 26.5378 41.9959C25.6871 41.5999 25.0198 41.0353 24.5358 40.3019C24.0664 39.5686 23.8244 38.6959 23.8098 37.6839H26.2738C26.2884 38.5053 26.5744 39.2019 27.1318 39.7739C27.6891 40.3459 28.4738 40.6319 29.4858 40.6319C30.3804 40.6319 31.0771 40.4193 31.5758 39.9939C32.0891 39.5539 32.3458 38.9966 32.3458 38.3219C32.3458 37.7793 32.2211 37.3393 31.9718 37.0019C31.7371 36.6646 31.4071 36.3859 30.9818 36.1659C30.5711 35.9459 30.0944 35.7479 29.5518 35.5719C29.0091 35.3959 28.4371 35.2053 27.8358 34.9999C26.6478 34.6039 25.7531 34.0906 25.1518 33.4599C24.5651 32.8293 24.2718 32.0006 24.2718 30.9739C24.2571 30.1086 24.4551 29.3533 24.8658 28.7079C25.2911 28.0626 25.8778 27.5639 26.6258 27.2119C27.3884 26.8453 28.2758 26.6619 29.2878 26.6619C30.2851 26.6619 31.1578 26.8453 31.9058 27.2119C32.6684 27.5786 33.2624 28.0919 33.6878 28.7519C34.1131 29.3973 34.3331 30.1526 34.3478 31.0179H31.8838C31.8838 30.6219 31.7811 30.2479 31.5758 29.8959C31.3704 29.5293 31.0698 29.2286 30.6738 28.9939C30.2778 28.7593 29.7938 28.6419 29.2218 28.6419C28.4884 28.6273 27.8798 28.8106 27.3958 29.1919C26.9264 29.5733 26.6918 30.1013 26.6918 30.7759C26.6918 31.3773 26.8678 31.8393 27.2198 32.1619C27.5718 32.4846 28.0558 32.7559 28.6718 32.9759C29.2878 33.1813 29.9918 33.4233 30.7838 33.7019C31.5464 33.9513 32.2284 34.2519 32.8298 34.6039C33.4311 34.9559 33.9078 35.4179 34.2598 35.9899C34.6264 36.5619 34.8098 37.2879 34.8098 38.1679C34.8098 38.9453 34.6118 39.6713 34.2158 40.3459C33.8198 41.0059 33.2258 41.5486 32.4338 41.9739C31.6418 42.3846 30.6664 42.5899 29.5078 42.5899ZM42.4414 42.5899C41.312 42.5899 40.322 42.3919 39.4714 41.9959C38.6207 41.5999 37.9534 41.0353 37.4694 40.3019C37 39.5686 36.758 38.6959 36.7434 37.6839H39.2074C39.222 38.5053 39.508 39.2019 40.0654 39.7739C40.6227 40.3459 41.4074 40.6319 42.4194 40.6319C43.314 40.6319 44.0107 40.4193 44.5094 39.9939C45.0227 39.5539 45.2794 38.9966 45.2794 38.3219C45.2794 37.7793 45.1547 37.3393 44.9054 37.0019C44.6707 36.6646 44.3407 36.3859 43.9154 36.1659C43.5047 35.9459 43.028 35.7479 42.4854 35.5719C41.9427 35.3959 41.3707 35.2053 40.7694 34.9999C39.5814 34.6039 38.6867 34.0906 38.0854 33.4599C37.4987 32.8293 37.2054 32.0006 37.2054 30.9739C37.1907 30.1086 37.3887 29.3533 37.7994 28.7079C38.2247 28.0626 38.8114 27.5639 39.5594 27.2119C40.322 26.8453 41.2094 26.6619 42.2214 26.6619C43.2187 26.6619 44.0914 26.8453 44.8394 27.2119C45.602 27.5786 46.196 28.0919 46.6214 28.7519C47.0467 29.3973 47.2667 30.1526 47.2814 31.0179H44.8174C44.8174 30.6219 44.7147 30.2479 44.5094 29.8959C44.304 29.5293 44.0034 29.2286 43.6074 28.9939C43.2114 28.7593 42.7274 28.6419 42.1554 28.6419C41.422 28.6273 40.8134 28.8106 40.3294 29.1919C39.86 29.5733 39.6254 30.1013 39.6254 30.7759C39.6254 31.3773 39.8014 31.8393 40.1534 32.1619C40.5054 32.4846 40.9894 32.7559 41.6054 32.9759C42.2214 33.1813 42.9254 33.4233 43.7174 33.7019C44.48 33.9513 45.162 34.2519 45.7634 34.6039C46.3647 34.9559 46.8414 35.4179 47.1934 35.9899C47.56 36.5619 47.7434 37.2879 47.7434 38.1679C47.7434 38.9453 47.5454 39.6713 47.1494 40.3459C46.7534 41.0059 46.1594 41.5486 45.3674 41.9739C44.5754 42.3846 43.6 42.5899 42.4414 42.5899ZM55.221 42.5899C54.2236 42.5899 53.3143 42.4139 52.493 42.0619C51.6863 41.6953 51.041 41.1453 50.557 40.4119C50.073 39.6786 49.8163 38.7619 49.787 37.6619H52.097C52.1263 38.4833 52.405 39.1799 52.933 39.7519C53.4756 40.3093 54.2383 40.5879 55.221 40.5879C56.1596 40.5879 56.8783 40.3313 57.377 39.8179C57.8756 39.2899 58.125 38.6373 58.125 37.8599C58.125 36.9213 57.7876 36.2246 57.113 35.7699C56.453 35.3153 55.639 35.0879 54.671 35.0879H53.527V33.1519H54.693C55.5583 33.1519 56.255 32.9466 56.783 32.5359C57.3256 32.1253 57.597 31.5459 57.597 30.7979C57.597 30.1673 57.3843 29.6539 56.959 29.2579C56.5483 28.8619 55.9616 28.6639 55.199 28.6639C54.407 28.6639 53.7836 28.8986 53.329 29.3679C52.8743 29.8226 52.625 30.3946 52.581 31.0839H50.271C50.3003 30.1893 50.5203 29.4119 50.931 28.7519C51.3563 28.0919 51.9356 27.5786 52.669 27.2119C53.4023 26.8453 54.2456 26.6619 55.199 26.6619C56.2256 26.6619 57.0836 26.8453 57.773 27.2119C58.477 27.5639 59.005 28.0479 59.357 28.6639C59.7236 29.2653 59.907 29.9253 59.907 30.6439C59.907 31.4653 59.6796 32.1839 59.225 32.7999C58.7703 33.4159 58.1616 33.8266 57.399 34.0319C58.279 34.2226 59.005 34.6553 59.577 35.3299C60.149 35.9899 60.435 36.8479 60.435 37.9039C60.435 38.7546 60.237 39.5393 59.841 40.2579C59.445 40.9619 58.8583 41.5266 58.081 41.9519C57.3036 42.3773 56.3503 42.5899 55.221 42.5899Z" fill="#F6F6F6"/>
<defs>
<linearGradient id="paint0_linear_183_1009" x1="38.6113" y1="0.325926" x2="-17.105" y2="49.5539" gradientUnits="userSpaceOnUse">
<stop stop-color="#1218C0"/>
<stop offset="0.600165" stop-color="#1F97F7"/>
</linearGradient>
</defs>
</svg>
