<svg width="69" height="69" viewBox="0 0 69 69" fill="none" xmlns="http://www.w3.org/2000/svg">
<circle cx="34.8555" cy="34.5673" r="34" fill="#1218C0"/>
<circle cx="34.8555" cy="34.5673" r="34" fill="url(#paint0_linear_184_758)" fill-opacity="0.8"/>
<path d="M27.9968 42.8313C26.5595 42.8313 25.4155 42.4279 24.5648 41.6213C23.7288 40.8146 23.3108 39.6779 23.3108 38.2113H25.6428C25.6428 38.9446 25.8188 39.5533 26.1708 40.0373C26.5375 40.5213 27.1315 40.7633 27.9528 40.7633C28.7595 40.7633 29.3315 40.5359 29.6688 40.0813C30.0061 39.6119 30.1748 39.0179 30.1748 38.2993V27.1673H32.5068V38.2993C32.5068 39.7513 32.1035 40.8733 31.2968 41.6653C30.4901 42.4426 29.3901 42.8313 27.9968 42.8313ZM40.7045 42.8313C39.5752 42.8313 38.5852 42.6333 37.7345 42.2373C36.8839 41.8413 36.2165 41.2766 35.7325 40.5433C35.2632 39.8099 35.0212 38.9373 35.0065 37.9253H37.4705C37.4852 38.7466 37.7712 39.4433 38.3285 40.0153C38.8859 40.5873 39.6705 40.8733 40.6825 40.8733C41.5772 40.8733 42.2739 40.6606 42.7725 40.2353C43.2859 39.7953 43.5425 39.2379 43.5425 38.5633C43.5425 38.0206 43.4179 37.5806 43.1685 37.2433C42.9339 36.9059 42.6039 36.6273 42.1785 36.4073C41.7679 36.1873 41.2912 35.9893 40.7485 35.8133C40.2059 35.6373 39.6339 35.4466 39.0325 35.2413C37.8445 34.8453 36.9499 34.3319 36.3485 33.7013C35.7619 33.0706 35.4685 32.2419 35.4685 31.2153C35.4539 30.3499 35.6519 29.5946 36.0625 28.9493C36.4879 28.3039 37.0745 27.8053 37.8225 27.4533C38.5852 27.0866 39.4725 26.9033 40.4845 26.9033C41.4819 26.9033 42.3545 27.0866 43.1025 27.4533C43.8652 27.8199 44.4592 28.3333 44.8845 28.9933C45.3099 29.6386 45.5299 30.3939 45.5445 31.2593H43.0805C43.0805 30.8633 42.9779 30.4893 42.7725 30.1373C42.5672 29.7706 42.2665 29.4699 41.8705 29.2353C41.4745 29.0006 40.9905 28.8833 40.4185 28.8833C39.6852 28.8686 39.0765 29.0519 38.5925 29.4333C38.1232 29.8146 37.8885 30.3426 37.8885 31.0173C37.8885 31.6186 38.0645 32.0806 38.4165 32.4033C38.7685 32.7259 39.2525 32.9973 39.8685 33.2173C40.4845 33.4226 41.1885 33.6646 41.9805 33.9433C42.7432 34.1926 43.4252 34.4933 44.0265 34.8453C44.6279 35.1973 45.1045 35.6593 45.4565 36.2313C45.8232 36.8033 46.0065 37.5293 46.0065 38.4093C46.0065 39.1866 45.8085 39.9126 45.4125 40.5873C45.0165 41.2473 44.4225 41.7899 43.6305 42.2153C42.8385 42.6259 41.8632 42.8313 40.7045 42.8313Z" fill="#F6F6F6"/>
<defs>
<linearGradient id="paint0_linear_184_758" x1="39.1733" y1="0.567259" x2="-16.543" y2="49.7953" gradientUnits="userSpaceOnUse">
<stop stop-color="#1218C0"/>
<stop offset="0.600165" stop-color="#1F97F7"/>
</linearGradient>
</defs>
</svg>
