<svg width="69" height="69" viewBox="0 0 69 69" fill="none" xmlns="http://www.w3.org/2000/svg">
<circle cx="34.2935" cy="34.0938" r="34" fill="#1218C0"/>
<circle cx="34.2935" cy="34.0938" r="34" fill="url(#paint0_linear_183_1013)" fill-opacity="0.8"/>
<path d="M13.5234 42.3578C12.3941 42.3578 11.4041 42.1597 10.5534 41.7637C9.70273 41.3677 9.03539 40.8031 8.55139 40.0697C8.08206 39.3364 7.84006 38.4637 7.82539 37.4517H10.2894C10.3041 38.2731 10.5901 38.9697 11.1474 39.5417C11.7047 40.1137 12.4894 40.3997 13.5014 40.3997C14.3961 40.3997 15.0927 40.1871 15.5914 39.7617C16.1047 39.3217 16.3614 38.7644 16.3614 38.0897C16.3614 37.5471 16.2367 37.1071 15.9874 36.7697C15.7527 36.4324 15.4227 36.1537 14.9974 35.9337C14.5867 35.7137 14.1101 35.5157 13.5674 35.3397C13.0247 35.1637 12.4527 34.9731 11.8514 34.7677C10.6634 34.3717 9.76873 33.8584 9.16739 33.2277C8.58073 32.5971 8.28739 31.7684 8.28739 30.7417C8.27273 29.8764 8.47073 29.1211 8.88139 28.4757C9.30673 27.8304 9.89339 27.3317 10.6414 26.9797C11.4041 26.6131 12.2914 26.4297 13.3034 26.4297C14.3007 26.4297 15.1734 26.6131 15.9214 26.9797C16.6841 27.3464 17.2781 27.8597 17.7034 28.5197C18.1287 29.1651 18.3487 29.9204 18.3634 30.7858H15.8994C15.8994 30.3897 15.7967 30.0157 15.5914 29.6638C15.3861 29.2971 15.0854 28.9964 14.6894 28.7617C14.2934 28.5271 13.8094 28.4097 13.2374 28.4097C12.5041 28.3951 11.8954 28.5784 11.4114 28.9597C10.9421 29.3411 10.7074 29.8691 10.7074 30.5437C10.7074 31.1451 10.8834 31.6071 11.2354 31.9297C11.5874 32.2524 12.0714 32.5237 12.6874 32.7437C13.3034 32.9491 14.0074 33.1911 14.7994 33.4697C15.5621 33.7191 16.2441 34.0197 16.8454 34.3717C17.4467 34.7237 17.9234 35.1857 18.2754 35.7577C18.6421 36.3297 18.8254 37.0557 18.8254 37.9357C18.8254 38.7131 18.6274 39.4391 18.2314 40.1137C17.8354 40.7737 17.2414 41.3164 16.4494 41.7417C15.6574 42.1524 14.6821 42.3578 13.5234 42.3578ZM28.239 42.3578C26.7137 42.3578 25.3937 42.0278 24.279 41.3678C23.179 40.6931 22.3283 39.7617 21.727 38.5737C21.1257 37.3711 20.825 35.9851 20.825 34.4157C20.825 32.8317 21.1257 31.4457 21.727 30.2577C22.3283 29.0551 23.179 28.1164 24.279 27.4417C25.3937 26.7671 26.7137 26.4297 28.239 26.4297C30.043 26.4297 31.517 26.8697 32.661 27.7497C33.805 28.6297 34.531 29.8617 34.839 31.4457H32.243C32.0377 30.5511 31.5977 29.8397 30.923 29.3117C30.2483 28.7837 29.3463 28.5197 28.217 28.5197C26.677 28.5197 25.4597 29.0477 24.565 30.1037C23.6703 31.1451 23.223 32.5824 23.223 34.4157C23.223 36.2344 23.6703 37.6644 24.565 38.7057C25.4597 39.7471 26.677 40.2677 28.217 40.2677C29.3463 40.2677 30.2483 40.0184 30.923 39.5197C31.5977 39.0211 32.0377 38.3391 32.243 37.4737H34.839C34.531 38.9991 33.805 40.1944 32.661 41.0597C31.517 41.9251 30.043 42.3578 28.239 42.3578ZM42.4843 42.3578C41.355 42.3578 40.365 42.1597 39.5143 41.7637C38.6637 41.3677 37.9963 40.8031 37.5123 40.0697C37.043 39.3364 36.801 38.4637 36.7863 37.4517H39.2503C39.265 38.2731 39.551 38.9697 40.1083 39.5417C40.6657 40.1137 41.4503 40.3997 42.4623 40.3997C43.357 40.3997 44.0537 40.1871 44.5523 39.7617C45.0657 39.3217 45.3223 38.7644 45.3223 38.0897C45.3223 37.5471 45.1977 37.1071 44.9483 36.7697C44.7137 36.4324 44.3837 36.1537 43.9583 35.9337C43.5477 35.7137 43.071 35.5157 42.5283 35.3397C41.9857 35.1637 41.4137 34.9731 40.8123 34.7677C39.6243 34.3717 38.7297 33.8584 38.1283 33.2277C37.5417 32.5971 37.2483 31.7684 37.2483 30.7417C37.2337 29.8764 37.4317 29.1211 37.8423 28.4757C38.2677 27.8304 38.8543 27.3317 39.6023 26.9797C40.365 26.6131 41.2523 26.4297 42.2643 26.4297C43.2617 26.4297 44.1343 26.6131 44.8823 26.9797C45.645 27.3464 46.239 27.8597 46.6643 28.5197C47.0897 29.1651 47.3097 29.9204 47.3243 30.7858H44.8603C44.8603 30.3897 44.7577 30.0157 44.5523 29.6638C44.347 29.2971 44.0463 28.9964 43.6503 28.7617C43.2543 28.5271 42.7703 28.4097 42.1983 28.4097C41.465 28.3951 40.8563 28.5784 40.3723 28.9597C39.903 29.3411 39.6683 29.8691 39.6683 30.5437C39.6683 31.1451 39.8443 31.6071 40.1963 31.9297C40.5483 32.2524 41.0323 32.5237 41.6483 32.7437C42.2643 32.9491 42.9683 33.1911 43.7603 33.4697C44.523 33.7191 45.205 34.0197 45.8063 34.3717C46.4077 34.7237 46.8843 35.1857 47.2363 35.7577C47.603 36.3297 47.7863 37.0557 47.7863 37.9357C47.7863 38.7131 47.5883 39.4391 47.1923 40.1137C46.7963 40.7737 46.2023 41.3164 45.4103 41.7417C44.6183 42.1524 43.643 42.3578 42.4843 42.3578ZM55.4179 42.3578C54.2886 42.3578 53.2986 42.1597 52.4479 41.7637C51.5973 41.3677 50.9299 40.8031 50.4459 40.0697C49.9766 39.3364 49.7346 38.4637 49.7199 37.4517H52.1839C52.1986 38.2731 52.4846 38.9697 53.0419 39.5417C53.5993 40.1137 54.3839 40.3997 55.3959 40.3997C56.2906 40.3997 56.9873 40.1871 57.4859 39.7617C57.9993 39.3217 58.2559 38.7644 58.2559 38.0897C58.2559 37.5471 58.1313 37.1071 57.8819 36.7697C57.6473 36.4324 57.3173 36.1537 56.8919 35.9337C56.4813 35.7137 56.0046 35.5157 55.4619 35.3397C54.9193 35.1637 54.3473 34.9731 53.7459 34.7677C52.5579 34.3717 51.6633 33.8584 51.0619 33.2277C50.4753 32.5971 50.1819 31.7684 50.1819 30.7417C50.1673 29.8764 50.3653 29.1211 50.7759 28.4757C51.2013 27.8304 51.7879 27.3317 52.5359 26.9797C53.2986 26.6131 54.1859 26.4297 55.1979 26.4297C56.1953 26.4297 57.0679 26.6131 57.8159 26.9797C58.5786 27.3464 59.1726 27.8597 59.5979 28.5197C60.0233 29.1651 60.2433 29.9204 60.2579 30.7858H57.7939C57.7939 30.3897 57.6913 30.0157 57.4859 29.6638C57.2806 29.2971 56.9799 28.9964 56.5839 28.7617C56.1879 28.5271 55.7039 28.4097 55.1319 28.4097C54.3986 28.3951 53.7899 28.5784 53.3059 28.9597C52.8366 29.3411 52.6019 29.8691 52.6019 30.5437C52.6019 31.1451 52.7779 31.6071 53.1299 31.9297C53.4819 32.2524 53.9659 32.5237 54.5819 32.7437C55.1979 32.9491 55.9019 33.1911 56.6939 33.4697C57.4566 33.7191 58.1386 34.0197 58.7399 34.3717C59.3413 34.7237 59.8179 35.1857 60.1699 35.7577C60.5366 36.3297 60.7199 37.0557 60.7199 37.9357C60.7199 38.7131 60.5219 39.4391 60.1259 40.1137C59.7299 40.7737 59.1359 41.3164 58.3439 41.7417C57.5519 42.1524 56.5766 42.3578 55.4179 42.3578Z" fill="#F6F6F6"/>
<defs>
<linearGradient id="paint0_linear_183_1013" x1="38.6113" y1="0.0937488" x2="-17.105" y2="49.3217" gradientUnits="userSpaceOnUse">
<stop stop-color="#1218C0"/>
<stop offset="0.600165" stop-color="#1F97F7"/>
</linearGradient>
</defs>
</svg>
