<svg width="69" height="69" viewBox="0 0 69 69" fill="none" xmlns="http://www.w3.org/2000/svg">
<circle cx="34.2935" cy="34.9775" r="34" fill="#1218C0"/>
<circle cx="34.2935" cy="34.9775" r="34" fill="url(#paint0_linear_183_989)" fill-opacity="0.8"/>
<path d="M14.3452 43.2415C12.8932 43.2415 11.6245 42.9115 10.5392 42.2515C9.45388 41.5915 8.61055 40.6675 8.00921 39.4795C7.40788 38.2915 7.10721 36.9055 7.10721 35.3215C7.10721 33.7522 7.41521 32.3662 8.03121 31.1635C8.64722 29.9609 9.51988 29.0222 10.6492 28.3475C11.7932 27.6582 13.1425 27.3135 14.6972 27.3135C16.4572 27.3135 17.9239 27.7389 19.0972 28.5895C20.2705 29.4402 21.0332 30.6135 21.3852 32.1095H18.7452C18.5105 31.2882 18.0485 30.6429 17.3592 30.1735C16.6699 29.7042 15.7825 29.4695 14.6972 29.4695C13.0839 29.4695 11.8152 29.9902 10.8912 31.0315C9.96721 32.0729 9.50521 33.5102 9.50521 35.3435C9.50521 37.1769 9.95988 38.6069 10.8692 39.6335C11.7785 40.6602 12.9885 41.1735 14.4992 41.1735C16.0245 41.1735 17.1685 40.7409 17.9312 39.8755C18.7085 39.0102 19.1632 37.8589 19.2952 36.4215H15.1152V34.6175H21.6492V42.9775H19.5152L19.3172 40.7115C18.8039 41.5182 18.1585 42.1415 17.3812 42.5815C16.6039 43.0215 15.5919 43.2415 14.3452 43.2415ZM30.2435 43.2415C29.1435 43.2415 28.1461 43.0289 27.2515 42.6035C26.3715 42.1635 25.6675 41.4962 25.1395 40.6015C24.6261 39.7069 24.3695 38.5702 24.3695 37.1915V27.5775H26.7015V37.2135C26.7015 38.5629 27.0241 39.5529 27.6695 40.1835C28.3148 40.8142 29.1875 41.1295 30.2875 41.1295C31.3728 41.1295 32.2381 40.8142 32.8835 40.1835C33.5288 39.5529 33.8515 38.5629 33.8515 37.2135V27.5775H36.1835V37.1915C36.1835 38.5702 35.9121 39.7069 35.3695 40.6015C34.8415 41.4962 34.1228 42.1635 33.2135 42.6035C32.3188 43.0289 31.3288 43.2415 30.2435 43.2415ZM39.1748 42.9775V27.5775H41.5068V41.1295H48.5028V42.9775H39.1748ZM51.0127 42.9775V27.5775H56.4027C57.6054 27.5775 58.6027 27.7829 59.3947 28.1935C60.1867 28.5895 60.7734 29.1395 61.1547 29.8435C61.5507 30.5329 61.7487 31.3175 61.7487 32.1975C61.7487 33.0335 61.558 33.8035 61.1767 34.5075C60.81 35.1969 60.2307 35.7469 59.4387 36.1575C58.6467 36.5682 57.6347 36.7735 56.4027 36.7735H53.3447V42.9775H51.0127ZM53.3447 34.8595H56.2927C57.3927 34.8595 58.1774 34.6249 58.6467 34.1555C59.1307 33.6715 59.3727 33.0189 59.3727 32.1975C59.3727 31.3469 59.1307 30.6869 58.6467 30.2175C58.1774 29.7335 57.3927 29.4915 56.2927 29.4915H53.3447V34.8595Z" fill="#F6F6F6"/>
<defs>
<linearGradient id="paint0_linear_183_989" x1="38.6113" y1="0.977538" x2="-17.105" y2="50.2055" gradientUnits="userSpaceOnUse">
<stop stop-color="#1218C0"/>
<stop offset="0.600165" stop-color="#1F97F7"/>
</linearGradient>
</defs>
</svg>
