<svg width="82" height="80" viewBox="0 0 82 80" fill="none" xmlns="http://www.w3.org/2000/svg">
<circle cx="41.0869" cy="39.9991" r="40" fill="#1218C0"/>
<circle cx="41.0869" cy="39.9991" r="40" fill="url(#paint0_linear_183_1017)" fill-opacity="0.8"/>
<path d="M8.26936 48.263C7.16936 48.263 6.17203 48.0504 5.27736 47.625C4.39736 47.185 3.69336 46.5177 3.16536 45.623C2.65203 44.7284 2.39536 43.5917 2.39536 42.213V32.599H4.72736V42.235C4.72736 43.5844 5.05003 44.5744 5.69536 45.205C6.34069 45.8357 7.21336 46.151 8.31336 46.151C9.39869 46.151 10.264 45.8357 10.9094 45.205C11.5547 44.5744 11.8774 43.5844 11.8774 42.235V32.599H14.2094V42.213C14.2094 43.5917 13.938 44.7284 13.3954 45.623C12.8674 46.5177 12.1487 47.185 11.2394 47.625C10.3447 48.0504 9.35469 48.263 8.26936 48.263ZM17.2007 47.999V32.599H19.5327L27.2547 44.193V32.599H29.5867V47.999H27.2547L19.5327 36.405V47.999H17.2007ZM32.7124 47.999V32.599H35.0444V47.999H32.7124ZM45.2754 48.263C43.7501 48.263 42.4154 47.9257 41.2714 47.251C40.1274 46.5764 39.2328 45.645 38.5874 44.457C37.9421 43.2544 37.6194 41.8684 37.6194 40.299C37.6194 38.7297 37.9421 37.351 38.5874 36.163C39.2328 34.9604 40.1274 34.0217 41.2714 33.347C42.4154 32.6724 43.7501 32.335 45.2754 32.335C46.8008 32.335 48.1354 32.6724 49.2794 33.347C50.4234 34.0217 51.3108 34.9604 51.9414 36.163C52.5868 37.351 52.9094 38.7297 52.9094 40.299C52.9094 41.8097 52.6088 43.1517 52.0074 44.325C51.4208 45.4984 50.5994 46.4224 49.5434 47.097L53.2614 50.881H50.3134L47.5634 47.977C46.8448 48.1677 46.0821 48.263 45.2754 48.263ZM45.2754 46.173C46.3314 46.173 47.2481 45.9384 48.0254 45.469C48.8174 44.9997 49.4334 44.325 49.8734 43.445C50.3134 42.565 50.5334 41.5164 50.5334 40.299C50.5334 39.0817 50.3134 38.033 49.8734 37.153C49.4334 36.273 48.8174 35.5984 48.0254 35.129C47.2481 34.6597 46.3314 34.425 45.2754 34.425C44.2194 34.425 43.2954 34.6597 42.5034 35.129C41.7114 35.5984 41.0954 36.273 40.6554 37.153C40.2301 38.033 40.0174 39.0817 40.0174 40.299C40.0174 41.5164 40.2301 42.565 40.6554 43.445C41.0954 44.325 41.7114 44.9997 42.5034 45.469C43.2954 45.9384 44.2194 46.173 45.2754 46.173ZM61.2928 48.263C60.1928 48.263 59.1955 48.0504 58.3008 47.625C57.4208 47.185 56.7168 46.5177 56.1888 45.623C55.6755 44.7284 55.4188 43.5917 55.4188 42.213V32.599H57.7508V42.235C57.7508 43.5844 58.0735 44.5744 58.7188 45.205C59.3641 45.8357 60.2368 46.151 61.3368 46.151C62.4221 46.151 63.2875 45.8357 63.9328 45.205C64.5781 44.5744 64.9008 43.5844 64.9008 42.235V32.599H67.2328V42.213C67.2328 43.5917 66.9615 44.7284 66.4188 45.623C65.8908 46.5177 65.1721 47.185 64.2628 47.625C63.3681 48.0504 62.3781 48.263 61.2928 48.263ZM70.2241 47.999V32.599H80.0141V34.491H72.5561V39.287H79.3541V41.135H72.5561V46.107H80.0141V47.999H70.2241Z" fill="#F6F6F6"/>
<defs>
<linearGradient id="paint0_linear_183_1017" x1="46.1667" y1="-0.000855956" x2="-19.3818" y2="57.9144" gradientUnits="userSpaceOnUse">
<stop stop-color="#1218C0"/>
<stop offset="0.600165" stop-color="#1F97F7"/>
</linearGradient>
</defs>
</svg>
