<svg width="82" height="80" viewBox="0 0 82 80" fill="none" xmlns="http://www.w3.org/2000/svg">
<circle cx="41.0869" cy="39.999" r="40" fill="#1218C0"/>
<circle cx="41.0869" cy="39.999" r="40" fill="url(#paint0_linear_183_1021)" fill-opacity="0.8"/>
<path d="M8.05452 48.263C6.95452 48.263 5.95718 48.0504 5.06252 47.625C4.18252 47.185 3.47852 46.5177 2.95052 45.623C2.43718 44.7284 2.18052 43.5917 2.18052 42.213V32.599H4.51252V42.235C4.51252 43.5844 4.83518 44.5744 5.48052 45.205C6.12585 45.8357 6.99852 46.151 8.09852 46.151C9.18385 46.151 10.0492 45.8357 10.6945 45.205C11.3398 44.5744 11.6625 43.5844 11.6625 42.235V32.599H13.9945V42.213C13.9945 43.5917 13.7232 44.7284 13.1805 45.623C12.6525 46.5177 11.9338 47.185 11.0245 47.625C10.1298 48.0504 9.13985 48.263 8.05452 48.263ZM16.9858 47.999V32.599H22.3758C23.5785 32.599 24.5758 32.8044 25.3678 33.215C26.1598 33.611 26.7465 34.161 27.1278 34.865C27.5238 35.5544 27.7218 36.339 27.7218 37.219C27.7218 38.055 27.5312 38.825 27.1498 39.529C26.7832 40.2184 26.2038 40.7684 25.4118 41.179C24.6198 41.5897 23.6078 41.795 22.3758 41.795H19.3178V47.999H16.9858ZM19.3178 39.881H22.2658C23.3658 39.881 24.1505 39.6464 24.6198 39.177C25.1038 38.693 25.3458 38.0404 25.3458 37.219C25.3458 36.3684 25.1038 35.7084 24.6198 35.239C24.1505 34.755 23.3658 34.513 22.2658 34.513H19.3178V39.881ZM30.0268 47.999V32.599H35.0208C36.8248 32.599 38.3062 32.9144 39.4648 33.545C40.6382 34.1757 41.5035 35.0704 42.0608 36.229C42.6328 37.373 42.9188 38.737 42.9188 40.321C42.9188 41.8904 42.6328 43.2544 42.0608 44.413C41.5035 45.557 40.6382 46.4444 39.4648 47.075C38.3062 47.691 36.8248 47.999 35.0208 47.999H30.0268ZM32.3588 46.019H34.9328C36.3262 46.019 37.4262 45.7917 38.2328 45.337C39.0542 44.8824 39.6408 44.2297 39.9928 43.379C40.3595 42.5284 40.5428 41.509 40.5428 40.321C40.5428 39.133 40.3595 38.1064 39.9928 37.241C39.6408 36.3757 39.0542 35.7157 38.2328 35.261C37.4262 34.7917 36.3262 34.557 34.9328 34.557H32.3588V46.019ZM43.4529 47.999L49.1289 32.599H51.6809L57.3129 47.999H54.8489L53.5289 44.237H47.2369L45.9169 47.999H43.4529ZM47.8969 42.389H52.8689L50.3829 35.371L47.8969 42.389ZM61.3927 47.999V34.491H56.8387V32.599H68.2567V34.491H63.7247V47.999H61.3927ZM70.439 47.999V32.599H80.229V34.491H72.771V39.287H79.569V41.135H72.771V46.107H80.229V47.999H70.439Z" fill="#F6F6F6"/>
<defs>
<linearGradient id="paint0_linear_183_1021" x1="46.1667" y1="-0.000978026" x2="-19.3818" y2="57.9143" gradientUnits="userSpaceOnUse">
<stop stop-color="#1218C0"/>
<stop offset="0.600165" stop-color="#1F97F7"/>
</linearGradient>
</defs>
</svg>
