<svg width="81" height="80" viewBox="0 0 81 80" fill="none" xmlns="http://www.w3.org/2000/svg">
<circle cx="40.0869" cy="39.999" r="40" fill="#1218C0"/>
<circle cx="40.0869" cy="39.999" r="40" fill="url(#paint0_linear_183_1025)" fill-opacity="0.8"/>
<path d="M14.605 47.999V32.599H24.395V34.491H16.937V39.287H23.735V41.135H16.937V46.107H24.395V47.999H14.605ZM26.1833 47.999L31.8593 32.599H34.4113L40.0433 47.999H37.5793L36.2593 44.237H29.9673L28.6473 47.999H26.1833ZM30.6273 42.389H35.5993L33.1133 35.371L30.6273 42.389ZM47.2729 48.263C46.1436 48.263 45.1536 48.065 44.3029 47.669C43.4522 47.273 42.7849 46.7084 42.3009 45.975C41.8316 45.2417 41.5896 44.369 41.5749 43.357H44.0389C44.0536 44.1784 44.3396 44.875 44.8969 45.447C45.4542 46.019 46.2389 46.305 47.2509 46.305C48.1456 46.305 48.8422 46.0924 49.3409 45.667C49.8542 45.227 50.1109 44.6697 50.1109 43.995C50.1109 43.4524 49.9862 43.0124 49.7369 42.675C49.5022 42.3377 49.1722 42.059 48.7469 41.839C48.3362 41.619 47.8596 41.421 47.3169 41.245C46.7742 41.069 46.2022 40.8784 45.6009 40.673C44.4129 40.277 43.5182 39.7637 42.9169 39.133C42.3302 38.5024 42.0369 37.6737 42.0369 36.647C42.0222 35.7817 42.2202 35.0264 42.6309 34.381C43.0562 33.7357 43.6429 33.237 44.3909 32.885C45.1536 32.5184 46.0409 32.335 47.0529 32.335C48.0502 32.335 48.9229 32.5184 49.6709 32.885C50.4336 33.2517 51.0276 33.765 51.4529 34.425C51.8782 35.0704 52.0982 35.8257 52.1129 36.691H49.6489C49.6489 36.295 49.5462 35.921 49.3409 35.569C49.1356 35.2024 48.8349 34.9017 48.4389 34.667C48.0429 34.4324 47.5589 34.315 46.9869 34.315C46.2536 34.3004 45.6449 34.4837 45.1609 34.865C44.6916 35.2464 44.4569 35.7744 44.4569 36.449C44.4569 37.0504 44.6329 37.5124 44.9849 37.835C45.3369 38.1577 45.8209 38.429 46.4369 38.649C47.0529 38.8544 47.7569 39.0964 48.5489 39.375C49.3116 39.6244 49.9936 39.925 50.5949 40.277C51.1962 40.629 51.6729 41.091 52.0249 41.663C52.3916 42.235 52.5749 42.961 52.5749 43.841C52.5749 44.6184 52.3769 45.3444 51.9809 46.019C51.5849 46.679 50.9909 47.2217 50.1989 47.647C49.4069 48.0577 48.4316 48.263 47.2729 48.263ZM58.3745 47.999V42.323L53.2705 32.599H55.9105L59.5405 40.035L63.1485 32.599H65.7665L60.7065 42.323V47.999H58.3745Z" fill="#F6F6F6"/>
<defs>
<linearGradient id="paint0_linear_183_1025" x1="45.1667" y1="-0.000978026" x2="-20.3818" y2="57.9143" gradientUnits="userSpaceOnUse">
<stop stop-color="#1218C0"/>
<stop offset="0.600165" stop-color="#1F97F7"/>
</linearGradient>
</defs>
</svg>
